# xmcd
#
# Track frame offsets: 
#        150
#        15340
#        33029
#        51378
#        70646
#        94493
#        113134
#        135276
#        149710
#        168226
#        187327
#        202489
#        221130
#        235562
#
# Disc length: 3397 seconds
#
# Revision: 1
# Processed by: cddbd v1.5.2PL0 Copyright (c) Steve Scherf et al.
# Submitted via: ExactAudioCopy v0.99pb5
#
DISCID=cf0d430e
DTITLE=Orquesta Sensacion - El Profesor
DYEAR=2007
DGENRE=Salsa
TTITLE0=Achilipú
TTITLE1=Adivíname y Olvidate
TTITLE2=El Profesor
TTITLE3=Vete Pa' Alla
TTITLE4=Así Fue Que Nació El Son
TTITLE5=Busca El Alfiler
TTITLE6=Vamos, Háblame Ahora
TTITLE7=Savor A Idilio
TTITLE8=Fango
TTITLE9=Rumbón Melón
TTITLE10=Achilipú - Reggaeton
TTITLE11=Busca El Alfiler - Reggaeton
TTITLE12=Sabor A Idilio - Reggaeton
TTITLE13=Rumbón Melón - Reggaeton
EXTD=YEAR: 2007
EXTT0=
EXTT1=
EXTT2=
EXTT3=
EXTT4=
EXTT5=
EXTT6=
EXTT7=
EXTT8=
EXTT9=
EXTT10=
EXTT11=
EXTT12=
EXTT13=
PLAYORDER=
